<?xml version="1.0" encoding="utf-8"?>
<!-- Generator: Adobe Illustrator 18.1.1, SVG Export Plug-In . SVG Version: 6.00 Build 0)  -->
<!DOCTYPE svg PUBLIC "-//W3C//DTD SVG 1.1//EN" "http://www.w3.org/Graphics/SVG/1.1/DTD/svg11.dtd">
<svg version="1.1" id="Layer_1" xmlns="http://www.w3.org/2000/svg" xmlns:xlink="http://www.w3.org/1999/xlink" x="0px" y="0px"
	 viewBox="0 0 412.8 78" enable-background="new 0 0 412.8 78" xml:space="preserve">
<text transform="matrix(1 0 0 1 252.6846 58.9076)" fill="#FFFFFF" font-family="'SourceSansPro-Light'" font-size="62">Farms</text>
<path fill="#FFFFFF" d="M115.6,26.3h-8.7v31.1c0,0.6-0.5,1.1-1.1,1.1h-7c-0.6,0-1.1-0.5-1.1-1.1V26.3H89c-0.6,0-1.1-0.4-1.1-1v-5.5
	c0-0.6,0.5-1,1.1-1h26.5c0.6,0,1.1,0.4,1.1,1v5.5C116.7,25.9,116.2,26.3,115.6,26.3z"/>
<path fill="#FFFFFF" d="M134.7,59c-8.8,0-15.8-4.8-15.8-17.2v-6.4c0-12.4,7-17.2,15.8-17.2c8.8,0,15.8,4.8,15.8,17.2v6.4
	C150.5,54.2,143.5,59,134.7,59z M141.3,35.4c0-6.4-2.1-9.1-6.6-9.1c-4.5,0-6.6,2.7-6.6,9.1v6.4c0,6.4,2.1,9.1,6.6,9.1
	c4.5,0,6.6-2.7,6.6-9.1V35.4z"/>
<path fill="#FFFFFF" d="M180.1,26.3h-8.7v31.1c0,0.6-0.5,1.1-1.1,1.1h-7c-0.6,0-1.1-0.5-1.1-1.1V26.3h-8.7c-0.6,0-1.1-0.4-1.1-1
	v-5.5c0-0.6,0.5-1,1.1-1h26.5c0.6,0,1.1,0.4,1.1,1v5.5C181.3,25.9,180.7,26.3,180.1,26.3z"/>
<path fill="#FFFFFF" d="M217.7,19.9l-8,33.2c-1.2,5.1-5.1,5.9-8.8,5.9c-3.7,0-7.6-0.8-8.9-5.9l-8-33.2c0-0.1-0.1-0.2-0.1-0.3
	c0-0.5,0.4-0.9,1-0.9h7.4c0.5,0,1,0.4,1.1,1l6.7,30.9c0.1,0.6,0.3,0.8,0.8,0.8c0.5,0,0.6-0.2,0.8-0.8l6.7-30.9c0.1-0.5,0.5-1,1-1
	h7.5c0.5,0,0.9,0.3,0.9,0.9C217.8,19.6,217.7,19.8,217.7,19.9z"/>
<path fill="#FFFFFF" d="M232.8,59c-4.2,0-7.4-0.5-10.1-1.2c-0.5-0.2-1.1-0.5-1.1-1.1v-5.2c0-0.7,0.4-1,1-1c0.1,0,0.1,0,0.2,0
	c2.2,0.2,8.1,0.6,10.2,0.6c3.7,0,4.8-1.2,4.8-3.7c0-1.6-0.8-2.4-3.5-4.1l-7.4-4.4c-5-2.9-6.3-6.3-6.3-10.2c0-5.9,3.3-10.4,13.7-10.4
	c3.9,0,9.3,0.6,11.3,1.2c0.4,0.1,0.8,0.4,0.8,1v5.4c0,0.5-0.2,0.9-0.9,0.9c0,0-0.1,0-0.1,0c-1.5-0.1-7.7-0.6-11.3-0.6
	c-3.1,0-4.2,0.9-4.2,2.8c0,1.5,0.7,2.2,3.6,3.7l6.8,3.7c5.6,3,7.2,6.5,7.2,10.9C247.4,52.9,243.7,59,232.8,59z"/>
<path fill="#FFFFFF" d="M46.6,33.5c-1.4-1.2-12.7-4.4-22.1-6.6c-0.1,7.2,0.4,15.1,1.3,16.5c1.4,1.2,12.7,4.4,22.1,6.6
	C48,42.7,47.5,34.9,46.6,33.5z"/>
<path fill="#FFFFFF" d="M36.2,2.6C16.2,2.6,0,18.8,0,38.8C0,58.8,16.2,75,36.2,75c20,0,36.2-16.2,36.2-36.2
	C72.5,18.8,56.3,2.6,36.2,2.6z M60.7,52.2c-0.9,0.3-6.4-0.7-12.8-2.2c-0.1,6.2-0.5,12-1.3,12.8c-2.3,0.8-32.5-6.8-34.8-8.8
	c-1.8-2.5-1.8-27.6,0-29.3c0.9-0.3,6.4,0.7,12.8,2.2c0.1-6.2,0.5-12,1.3-12.8c2.3-0.8,32.5,6.8,34.8,8.8
	C62.5,25.5,62.5,50.6,60.7,52.2z"/>
</svg>
