<?xml version="1.0" encoding="utf-8"?>
<!-- Generator: Adobe Illustrator 18.1.1, SVG Export Plug-In . SVG Version: 6.00 Build 0)  -->
<!DOCTYPE svg PUBLIC "-//W3C//DTD SVG 1.1//EN" "http://www.w3.org/Graphics/SVG/1.1/DTD/svg11.dtd">
<svg version="1.1" id="Layer_1" xmlns="http://www.w3.org/2000/svg" xmlns:xlink="http://www.w3.org/1999/xlink" x="0px" y="0px"
	 viewBox="0 0 185.7 60" enable-background="new 0 0 185.7 60" xml:space="preserve">
<g>
	<g>
		<g>
			<g>
				<path fill="#FFFFFF" d="M85.6,21.5h-5.8v21c0,0.4-0.3,0.7-0.7,0.7h-4.7c-0.4,0-0.7-0.3-0.7-0.7v-21h-5.9c-0.4,0-0.7-0.3-0.7-0.7
					v-3.7c0-0.4,0.3-0.7,0.7-0.7h17.9c0.4,0,0.8,0.3,0.8,0.7v3.7C86.4,21.2,86,21.5,85.6,21.5z"/>
				<path fill="#FFFFFF" d="M98.5,43.5c-6,0-10.7-3.2-10.7-11.6v-4.3c0-8.4,4.7-11.6,10.7-11.6c6,0,10.7,3.2,10.7,11.6v4.3
					C109.2,40.3,104.5,43.5,98.5,43.5z M103,27.6c0-4.3-1.4-6.2-4.5-6.2c-3,0-4.4,1.8-4.4,6.2v4.3c0,4.3,1.4,6.2,4.4,6.2
					c3,0,4.5-1.8,4.5-6.2V27.6z"/>
			</g>
			<g>
				<path fill="#FFFFFF" d="M129.2,21.5h-5.8v21c0,0.4-0.3,0.7-0.7,0.7h-4.7c-0.4,0-0.7-0.3-0.7-0.7v-21h-5.9
					c-0.4,0-0.7-0.3-0.7-0.7v-3.7c0-0.4,0.3-0.7,0.7-0.7h17.9c0.4,0,0.8,0.3,0.8,0.7v3.7C129.9,21.2,129.6,21.5,129.2,21.5z"/>
			</g>
			<g>
				<path fill="#FFFFFF" d="M154.5,17.1l-5.4,22.4c-0.8,3.5-3.5,4-6,4c-2.5,0-5.2-0.5-6-4l-5.4-22.4c0-0.1,0-0.1,0-0.2
					c0-0.3,0.3-0.6,0.6-0.6h5c0.4,0,0.6,0.3,0.7,0.6l4.5,20.8c0.1,0.4,0.2,0.5,0.5,0.5c0.3,0,0.4-0.1,0.5-0.5l4.5-20.8
					c0.1-0.4,0.3-0.6,0.7-0.6h5.1c0.4,0,0.6,0.2,0.6,0.6C154.6,17,154.5,17.1,154.5,17.1z"/>
			</g>
			<g>
				<path fill="#FFFFFF" d="M164.7,43.5c-2.9,0-5-0.3-6.8-0.8c-0.4-0.1-0.7-0.3-0.7-0.7v-3.5c0-0.5,0.3-0.7,0.6-0.7c0,0,0.1,0,0.1,0
					c1.5,0.1,5.4,0.4,6.9,0.4c2.5,0,3.2-0.8,3.2-2.5c0-1-0.5-1.6-2.4-2.7l-5-3c-3.4-2-4.3-4.3-4.3-6.9c0-4,2.2-7,9.2-7
					c2.6,0,6.3,0.4,7.6,0.8c0.3,0.1,0.5,0.3,0.5,0.6v3.6c0,0.3-0.1,0.6-0.6,0.6c0,0,0,0-0.1,0c-1-0.1-5.2-0.4-7.7-0.4
					c-2.1,0-2.8,0.6-2.8,1.9c0,1,0.5,1.5,2.4,2.5l4.6,2.5c3.8,2,4.9,4.4,4.9,7.3C174.6,39.4,172,43.5,164.7,43.5z"/>
			</g>
		</g>
		<g>
			<path fill="#FFFFFF" d="M39.1,26.3c-0.9-0.8-8.5-2.9-14.9-4.4c0,4.9,0.3,10.2,0.9,11.1C26,33.8,33.6,36,40,37.5
				C40,32.6,39.7,27.3,39.1,26.3z"/>
			<path fill="#FFFFFF" d="M32.1,5.5C18.6,5.5,7.7,16.4,7.7,29.9c0,13.5,10.9,24.4,24.4,24.4c13.5,0,24.4-10.9,24.4-24.4
				C56.6,16.4,45.6,5.5,32.1,5.5z M48.6,39c-0.6,0.2-4.3-0.5-8.6-1.5c0,4.2-0.3,8.1-0.9,8.6c-1.6,0.5-21.9-4.6-23.5-5.9
				c-1.2-1.7-1.2-18.6,0-19.7c0.6-0.2,4.3,0.5,8.6,1.5c0-4.2,0.3-8.1,0.9-8.6c1.6-0.5,21.9,4.6,23.5,5.9
				C49.8,20.9,49.8,37.8,48.6,39z"/>
		</g>
	</g>
</g>
<rect x="1.3" y="-6.5" display="none" width="204.1" height="71.6"/>
</svg>
