<?xml version="1.0" encoding="UTF-8" standalone="no"?>
<svg width="44px" height="55px" viewBox="0 0 44 55" version="1.1" xmlns="http://www.w3.org/2000/svg" xmlns:xlink="http://www.w3.org/1999/xlink" xmlns:sketch="http://www.bohemiancoding.com/sketch/ns">
    <!-- Generator: Sketch 3.2.2 (9983) - http://www.bohemiancoding.com/sketch -->
    <title>Group</title>
    <desc>Created with Sketch.</desc>
    <defs></defs>
    <g id="Page-1" stroke="none" stroke-width="1" fill="none" fill-rule="evenodd" sketch:type="MSPage">
        <g id="Artboard-19" sketch:type="MSArtboardGroup" transform="translate(-487.000000, -285.000000)" fill="#EA6C39">
            <g id="Group" sketch:type="MSLayerGroup" transform="translate(486.500000, 285.000000)">
                <path d="M38.0289425,11.8151579 C37.352904,11.8151579 36.7035513,11.9176316 36.0921516,12.1057895 C36.0850354,8.58578947 33.1620586,5.73505263 29.5541481,5.73505263 C28.3295696,5.73505263 27.1862344,6.06968421 26.2059786,6.64226316 C24.608393,2.78647368 20.7383693,0.0648421053 16.2160278,0.0648421053 C10.6381175,0.0648421053 6.05113725,4.202 5.49726012,9.50457895 C2.58317854,10.6393158 0.5236333,13.4176842 0.5236333,16.6673158 C0.5236333,20.8027368 3.85816336,24.1768421 8.04545071,24.3690526 C8.07688057,24.3719474 8.10771741,24.3783158 8.1403333,24.3783158 L37.8931418,24.3783158 C37.9085602,24.3783158 37.9233856,24.3742632 37.938804,24.3736842 C37.9690479,24.3736842 37.9986987,24.3783158 38.0295355,24.3783158 C41.5822955,24.3783158 44.4631682,21.5663684 44.4631682,18.0967368 C44.4625752,14.6271053 41.5817025,11.8151579 38.0289425,11.8151579 L38.0289425,11.8151579 Z" id="Shape" sketch:type="MSShapeGroup"></path>
                <path d="M28.4558821,36.0284737 C28.4558821,38.1439474 26.6987751,39.8587895 24.5318939,39.8587895 C22.3650128,39.8587895 20.6084988,38.1439474 20.6084988,36.0284737 C20.6084988,33.9135789 24.5318939,26.9662105 24.5318939,26.9662105 C24.5318939,26.9662105 28.4558821,33.9135789 28.4558821,36.0284737 L28.4558821,36.0284737 Z" id="Shape" sketch:type="MSShapeGroup"></path>
                <path d="M20.4228847,43.1043684 C20.4228847,45.2198421 18.6669638,46.9346842 16.4994896,46.9346842 C14.3326084,46.9346842 12.5755014,45.2198421 12.5755014,43.1043684 C12.5755014,40.9883158 16.4994896,34.0415263 16.4994896,34.0415263 C16.4994896,34.0415263 20.4228847,40.9883158 20.4228847,43.1043684 L20.4228847,43.1043684 Z" id="Shape" sketch:type="MSShapeGroup"></path>
                <path d="M28.4558821,50.8356316 C28.4558821,52.9511053 26.6987751,54.6665263 24.5318939,54.6665263 C22.3650128,54.6665263 20.6084988,52.9511053 20.6084988,50.8356316 C20.6084988,48.7201579 24.5318939,41.7739474 24.5318939,41.7739474 C24.5318939,41.7739474 28.4558821,48.7195789 28.4558821,50.8356316 L28.4558821,50.8356316 Z" id="Shape" sketch:type="MSShapeGroup"></path>
            </g>
        </g>
    </g>
</svg>