<?xml version="1.0" encoding="UTF-8" standalone="no"?>
<svg width="59px" height="75px" viewBox="0 0 59 75" version="1.1" xmlns="http://www.w3.org/2000/svg" xmlns:xlink="http://www.w3.org/1999/xlink" xmlns:sketch="http://www.bohemiancoding.com/sketch/ns">
    <!-- Generator: Sketch 3.2.2 (9983) - http://www.bohemiancoding.com/sketch -->
    <title>noun_1478 2</title>
    <desc>Created with Sketch.</desc>
    <defs></defs>
    <g id="Page-1" stroke="none" stroke-width="1" fill="none" fill-rule="evenodd" sketch:type="MSPage">
        <g id="Artboard-19" sketch:type="MSArtboardGroup" transform="translate(-471.000000, -543.000000)" fill="#EA6C39">
            <g id="noun_1478-2" sketch:type="MSLayerGroup" transform="translate(471.000000, 543.000000)">
                <path d="M14.2363067,16.4985149 C14.7814667,18.5472772 13.9004,20.5841584 12.17052,21.069802 C10.4469333,21.5539604 8.49285333,20.1950495 7.90914667,18.005198 C7.20744,15.7811881 9.07184,7.81113861 9.07184,7.81113861 C9.07184,7.81113861 13.6014667,14.525495 14.2363067,16.4985149 L14.2363067,16.4985149 Z" id="Shape" sketch:type="MSShapeGroup"></path>
                <path d="M21.9063067,24.4722772 C21.1896533,26.3569307 19.26232,27.4589109 17.5410933,26.799505 C15.8151467,26.1460396 14.9946533,23.9420792 15.7797467,22.0076733 C16.51528,20.0071782 22.4923733,15.1477723 22.4923733,15.1477723 C22.4923733,15.1477723 22.5277733,22.5579208 21.9063067,24.4722772 L21.9063067,24.4722772 Z" id="Shape" sketch:type="MSShapeGroup"></path>
                <path d="M26.1550933,34.1517327 C25.65084,36.085396 23.87376,37.3804455 22.0817333,36.9118812 C20.2944267,36.4455446 19.2253467,34.3381188 19.79332,32.3405941 C20.3046533,30.2792079 25.7279333,24.8784653 25.7279333,24.8784653 C25.7279333,24.8784653 26.55236,32.2054455 26.1550933,34.1517327 L26.1550933,34.1517327 Z" id="Shape" sketch:type="MSShapeGroup"></path>
                <path d="M31.5004933,43.1844059 C31.2464,45.1410891 29.6620533,46.644802 27.8251867,46.400495 C25.99304,46.1576733 24.6517733,44.1943069 24.9743067,42.1507426 C25.2205333,40.044802 29.9900933,34.1405941 29.9900933,34.1405941 C29.9900933,34.1405941 31.6365867,41.2269802 31.5004933,43.1844059 L31.5004933,43.1844059 Z" id="Shape" sketch:type="MSShapeGroup"></path>
                <path d="M6.49944,29.6049505 C8.41418667,30.8717822 10.6207867,30.4804455 11.4711733,28.8720297 C12.3152667,27.2613861 11.54276,25.0440594 9.72162667,23.7764851 C7.8942,22.5905941 1.13686838e-13,20.6420792 1.13686838e-13,20.6420792 C1.13686838e-13,20.6420792 4.50917333,28.4175743 6.49944,29.6049505 L6.49944,29.6049505 Z" id="Shape" sketch:type="MSShapeGroup"></path>
                <path d="M11.43184,40.8378713 C13.4866133,41.914604 15.6412933,41.2886139 16.2895067,39.6007426 C16.94008,37.9084158 15.9174133,35.7824257 13.96412,34.6967822 C12.01476,33.6965347 3.94749333,32.5106436 3.94749333,32.5106436 C3.94749333,32.5106436 9.29682667,39.8487624 11.43184,40.8378713 L11.43184,40.8378713 Z" id="Shape" sketch:type="MSShapeGroup"></path>
                <path d="M17.7833867,51.5621287 C19.9813333,52.4056931 22.0306,51.519802 22.4428133,49.7628713 C22.8558133,47.9992574 21.5578133,46.0113861 19.4825867,45.1425743 C17.4199467,44.3717822 9.24254667,44.0094059 9.24254667,44.0094059 C9.24254667,44.0094059 15.5052,50.8269802 17.7833867,51.5621287 L17.7833867,51.5621287 Z" id="Shape" sketch:type="MSShapeGroup"></path>
                <path d="M37.99128,51.3089109 C38.0156667,53.2685644 36.7098,54.9675743 34.8509067,54.999505 C33.0085333,55.0217822 31.3848533,53.2581683 31.40688,51.2049505 C31.33136,49.0856436 35.2875067,42.6898515 35.2875067,42.6898515 C35.2875067,42.6898515 37.8134933,49.3804455 37.99128,51.3089109 L37.99128,51.3089109 Z" id="Shape" sketch:type="MSShapeGroup"></path>
                <path d="M25.7302933,61.5007426 C28.0446667,62.0576733 29.9444667,60.8725248 30.0585333,59.0799505 C30.1844,57.2695545 28.6000533,55.4769802 26.40604,54.8836634 C24.2450667,54.4009901 16.0566533,54.9935644 16.0566533,54.9935644 C16.0566533,54.9935644 23.3207333,61.0982673 25.7302933,61.5007426 L25.7302933,61.5007426 Z" id="Shape" sketch:type="MSShapeGroup"></path>
                <path d="M57.2496667,74.1987624 C45.9027867,70.0774752 36.00888,62.7534653 28.5740933,53.7527228 C21.0826667,44.7519802 15.7844667,34.2943069 12.1713067,23.4423267 C12.0399333,23.0405941 12.24368,22.6262376 12.6275733,22.5163366 L12.6275733,22.5163366 C13.01068,22.4064356 13.42604,22.6373762 13.55584,23.0331683 L13.55584,23.0331683 C17.12416,33.7544554 22.3578533,44.0688119 29.7139733,52.904703 C37.0181733,61.7435644 46.6847333,68.8915842 57.77752,72.9230198 C58.1826533,73.0737624 58.3982,73.4829208 58.2581733,73.8371287 L58.2581733,73.8371287 C58.1165733,74.1920792 57.6658133,74.3539604 57.2496667,74.1987624 L57.2496667,74.1987624 L57.2496667,74.1987624 Z" id="Shape" sketch:type="MSShapeGroup"></path>
                <path d="M49.2453333,7.14653465 C48.5514933,8.52549505 47.082,9.3029703 45.8603067,8.84257426 C44.6472667,8.38737624 44.1917867,6.75148515 44.95092,5.23811881 C45.6479067,3.62821782 50.66684,0 50.66684,0 C50.66684,0 49.8203867,5.77351485 49.2453333,7.14653465 L49.2453333,7.14653465 Z" id="Shape" sketch:type="MSShapeGroup"></path>
                <path d="M49.8801733,14.8351485 C48.61128,15.6014851 46.97108,15.4715347 46.2685867,14.3903465 C45.54328,13.3069307 46.1206933,11.6844059 47.4721867,10.9113861 C48.8559333,10.0626238 54.5569067,9.96831683 54.5569067,9.96831683 C54.5569067,9.96831683 51.0908533,13.9893564 49.8801733,14.8351485 L49.8801733,14.8351485 Z" id="Shape" sketch:type="MSShapeGroup"></path>
                <path d="M48.1558,22.020297 C47.03716,22.9641089 45.3961733,23.0910891 44.51668,22.1339109 C43.6159467,21.1789604 43.8991467,19.4881188 45.11376,18.5287129 C46.3165733,17.4757426 51.93888,16.5876238 51.93888,16.5876238 C51.93888,16.5876238 49.1973467,20.9970297 48.1558,22.020297 L48.1558,22.020297 Z" id="Shape" sketch:type="MSShapeGroup"></path>
                <path d="M47.7199867,29.354703 C46.7736267,30.4626238 45.1971467,30.8443069 44.14616,30.0386139 C43.1054,29.2373762 43.0660667,27.5264851 44.09896,26.389604 C45.1098267,25.159901 50.4929867,23.424505 50.4929867,23.424505 C50.4929867,23.424505 48.5672267,28.1740099 47.7199867,29.354703 L47.7199867,29.354703 Z" id="Shape" sketch:type="MSShapeGroup"></path>
                <path d="M38.5403733,11.4846535 C39.0587867,13.0641089 40.5290667,13.7257426 41.772,13.1168317 C42.99684,12.4982673 43.6065067,10.8883663 43.16204,9.36460396 C42.6798133,7.91287129 39.20904,3.29925743 39.20904,3.29925743 C39.20904,3.29925743 37.8984533,9.91782178 38.5403733,11.4846535 L38.5403733,11.4846535 Z" id="Shape" sketch:type="MSShapeGroup"></path>
                <path d="M36.3904133,20.4542079 C37.1739333,21.940099 38.7394,22.3641089 39.8604,21.570297 C40.9640933,20.7690594 41.2826933,19.0863861 40.5982933,17.6465347 C39.8541067,16.2839109 35.6942133,12.2012376 35.6942133,12.2012376 C35.6942133,12.2012376 35.47316,19.0054455 36.3904133,20.4542079 L36.3904133,20.4542079 Z" id="Shape" sketch:type="MSShapeGroup"></path>
                <path d="M35.84132,29.6576733 C36.8671333,30.999505 38.5041867,31.1710396 39.4552667,30.2131188 C40.4181467,29.25 40.415,27.5413366 39.4906667,26.2277228 C38.5262133,25.0039604 33.7063067,21.6089109 33.7063067,21.6089109 C33.7063067,21.6089109 34.6817733,28.3804455 35.84132,29.6576733 L35.84132,29.6576733 Z" id="Shape" sketch:type="MSShapeGroup"></path>
                <path d="M48.56644,36.6846535 C47.8293333,37.9284653 46.32444,38.544802 45.1601733,37.9054455 C43.9911867,37.2712871 43.66236,35.5886139 44.4828533,34.3054455 C45.26716,32.935396 50.2711467,30.3742574 50.2711467,30.3742574 C50.2711467,30.3742574 49.2044267,35.3821782 48.56644,36.6846535 L48.56644,36.6846535 Z" id="Shape" sketch:type="MSShapeGroup"></path>
                <path d="M36.89624,38.7935644 C38.1415333,39.9534653 39.7738667,39.8792079 40.5597467,38.7891089 C41.3409067,37.695297 41.0482667,36.0089109 39.9083867,34.8594059 C38.7449067,33.8019802 33.39872,31.2148515 33.39872,31.2148515 C33.39872,31.2148515 35.5423867,37.7168317 36.89624,38.7935644 L36.89624,38.7935644 Z" id="Shape" sketch:type="MSShapeGroup"></path>
                <path d="M51.1168133,58.165099 C46.10496,51.2294554 42.9158133,43.205198 41.71064,34.9106436 C40.49996,26.6101485 41.5918533,18.0386139 44.72672,10.2118812 C44.83528,9.9200495 45.1593867,9.77153465 45.4292133,9.87029703 L45.4292133,9.87029703 C45.7029733,9.97054455 45.8201867,10.2757426 45.7139867,10.5616337 L45.7139867,10.5616337 C39.3238933,25.9596535 42.17556,44.0532178 51.97664,57.5888614 C52.1591467,57.8324257 52.1221733,58.154703 51.8932533,58.3232673 L51.8932533,58.3232673 C51.6619733,58.4925743 51.3079733,58.419802 51.1168133,58.165099 L51.1168133,58.165099 L51.1168133,58.165099 Z" id="Shape" sketch:type="MSShapeGroup"></path>
            </g>
        </g>
    </g>
</svg>