<?xml version="1.0" encoding="UTF-8" standalone="no"?>
<svg width="40px" height="40px" viewBox="0 0 40 40" version="1.1" xmlns="http://www.w3.org/2000/svg" xmlns:xlink="http://www.w3.org/1999/xlink" xmlns:sketch="http://www.bohemiancoding.com/sketch/ns">
    <!-- Generator: Sketch 3.2.2 (9983) - http://www.bohemiancoding.com/sketch -->
    <title>Shape + Shape + Shape 2</title>
    <desc>Created with Sketch.</desc>
    <defs></defs>
    <g id="Page-1" stroke="none" stroke-width="1" fill="none" fill-rule="evenodd" sketch:type="MSPage">
        <g id="Artboard-19" sketch:type="MSArtboardGroup" transform="translate(-772.000000, -547.000000)" fill="#EA6C39">
            <g id="Shape-+-Shape-+-Shape-2" sketch:type="MSLayerGroup" transform="translate(772.000000, 547.000000)">
                <path d="M11.7424,0.386138614 C13.8636,0.385742574 15.9844,0.38019802 18.1052,0.388118812 C19.1712,0.392079208 20.0436,1.08554455 20.0976,1.94336634 C20.1552,2.86376238 19.3116,3.68673267 18.1556,3.65386139 C17.2784,3.62851485 17.112,3.9960396 17.2764,4.70574257 C17.6888,6.48554455 18.148,8.25584158 18.524,10.0435644 C18.7324,11.0364356 18.8528,12.0447525 19.1392,13.0269307 C19.2516,13.4114851 19.3208,13.7322772 19.7892,13.6760396 C21.2092,13.5061386 22.5276,14.0910891 23.9128,14.2142574 C24.888,14.3013861 25.0624,13.970297 25.0268,13.1243564 C24.9696,11.7794059 24.956,10.4277228 25.024,9.08435644 C25.1408,6.72118812 26.0488,4.8380198 28.4296,3.89584158 C29.7224,3.38415842 31.368,3.8019802 31.6344,4.77069307 C31.9316,5.85227723 31.204,6.92039604 30.0056,6.97821782 C28.8188,7.03564356 28.386,7.77227723 28.3484,8.71722772 C28.268,10.6950495 28.3312,12.6784158 28.3188,14.6594059 C28.3152,15.1980198 28.4904,15.4384158 29.0588,15.6566337 C31.2328,16.4910891 33.388,17.380198 35.442,18.489901 C36.258,18.9306931 36.6228,19.529901 36.5896,20.4613861 C36.538,21.8863366 36.5912,23.3140594 36.5732,24.740198 C36.55,26.4831683 36.1308,26.929901 34.352,26.88 C31.7752,26.8087129 29.7612,27.7778218 28.21,29.8043564 C27.1668,31.1683168 26.734,32.6685149 26.796,34.3714851 C26.8588,36.1318812 26.412,36.549703 24.678,36.5659406 C23.638,36.5762376 22.596,36.5314851 21.5576,36.5766337 C19.7048,36.6582178 19.3312,35.4633663 19.7544,34.2356436 C21.1672,30.130297 18.5332,25.2047525 15.4224,23.3477228 C11.4844,20.9960396 6.7612,21.2590099 3.3024,24.4772277 C2.2848,25.4245545 0.6664,25.3766337 0.1712,24.1710891 C-0.1848,23.3033663 0.3864,22.8594059 0.7468,22.310495 C0.952,21.9976238 1.254,21.6629703 1.5896,21.5326733 C3.9692,20.6071287 3.9876,18.4978218 4.3176,16.4815842 C4.7208,14.0162376 5.0612,11.5405941 5.6012,9.09465347 C5.9388,7.56673267 6.036,5.98653465 6.2552,4.43247525 C6.3348,3.86891089 6.136,3.64950495 5.546,3.66455446 C5.134,3.67485149 4.6872,3.80039604 4.3044,3.44673267 C3.7828,2.96277228 3.1336,2.48950495 3.4324,1.70415842 C3.7244,0.935049505 4.256,0.352871287 5.26,0.373465347 C7.42,0.416633663 9.5816,0.386534653 11.7424,0.386138614 L11.7424,0.386138614 Z M11.9488,13.6712871 L14.2248,13.6712871 C15.988,13.6716832 15.982,13.6732673 15.4524,11.9362376 C15.3728,11.6756436 15.3992,11.3857426 15.3456,11.1152475 C14.9896,9.31920792 14.7316,7.49584158 14.236,5.73821782 C13.6476,3.64910891 13.5584,3.67366337 11.2648,3.67683168 C10.9852,3.67722772 10.7052,3.68831683 10.426,3.6780198 C9.8168,3.6570297 9.6464,3.96237624 9.5676,4.54019802 C9.204,7.20633663 8.838,9.87405941 8.2044,12.4962376 C8.0104,13.300198 8.196,13.7718812 9.1952,13.6871287 C10.1064,13.610297 11.03,13.6712871 11.9488,13.6712871 L11.9488,13.6712871 Z" id="Shape" sketch:type="MSShapeGroup"></path>
                <path d="M10.0576,39.8776238 C5.7052,40.2356436 1.7848,36.0293069 1.776,31.7706931 C1.7668,27.4415842 5.7152,23.5667327 10.0172,23.5481188 C14.4492,23.530297 18.3664,27.390099 18.3496,31.7968317 C18.3332,36.1207921 14.4132,40.2328713 10.0576,39.8776238 L10.0576,39.8776238 Z M10.098,36.6071287 C12.706,36.8625743 15.0456,34.4031683 15.0288,31.7081188 C15.0128,29.1009901 12.6988,26.8142574 10.0056,26.8360396 C7.4,26.8578218 5.0812,29.1647525 5.1024,31.7984158 C5.1224,34.3263366 7.368,36.8752475 10.098,36.6071287 L10.098,36.6071287 Z" id="Shape" sketch:type="MSShapeGroup"></path>
                <path d="M34.2896,39.8784158 C30.8232,40.1425743 28.3764,37.0170297 28.414,34.2435644 C28.4552,31.210297 30.6316,28.6138614 34.1764,28.4562376 C36.8884,28.3358416 39.9636,30.6328713 39.9996,34.1742574 C40.0324,37.4293069 37.0696,40.2190099 34.2896,39.8784158 L34.2896,39.8784158 Z M34.3044,36.6027723 C35.6504,36.5893069 36.8628,35.4578218 36.8736,34.2047525 C36.8832,32.9750495 35.572,31.7409901 34.2548,31.7409901 C32.9404,31.7413861 31.6824,32.9524752 31.6828,34.2190099 C31.6844,35.6467327 32.7516,36.6174257 34.3044,36.6027723 L34.3044,36.6027723 Z" id="Shape" sketch:type="MSShapeGroup"></path>
            </g>
        </g>
    </g>
</svg>