<?xml version="1.0" encoding="UTF-8" standalone="no"?>
<svg width="72px" height="70px" viewBox="0 0 72 70" version="1.1" xmlns="http://www.w3.org/2000/svg" xmlns:xlink="http://www.w3.org/1999/xlink" xmlns:sketch="http://www.bohemiancoding.com/sketch/ns">
    <!-- Generator: Sketch 3.2.2 (9983) - http://www.bohemiancoding.com/sketch -->
    <title>Shape + Shape</title>
    <desc>Created with Sketch.</desc>
    <defs></defs>
    <g id="Page-1" stroke="none" stroke-width="1" fill="none" fill-rule="evenodd" sketch:type="MSPage">
        <g id="Artboard-19" sketch:type="MSArtboardGroup" transform="translate(-226.000000, -1054.000000)" fill="#EA6C39">
            <g id="Shape-+-Shape" sketch:type="MSLayerGroup" transform="translate(225.775000, 1054.500000)">
                <path d="M36.3825,0 C16.8466793,0 0.949108696,15.41 0.790923913,34.27 C0.711831522,43.47 4.35008152,52.21 11.0729348,58.7266667 C17.7166957,65.32 26.6541359,68.9233333 36.1452228,69 L36.3825,69 C55.9183207,69 71.8158913,53.59 71.9740761,34.73 C72.1322609,15.7166667 56.2346902,0.153333333 36.3825,0 L36.3825,0 Z M36.3825,64.3233333 L36.1452228,64.3233333 C27.9196141,64.2466667 20.2476522,61.1033333 14.3948152,55.43 C8.70016304,49.8333333 5.53646739,42.32 5.61555978,34.3466667 C5.69465217,18.0166667 19.5358207,4.67666667 36.6197772,4.67666667 C53.6246413,4.75333333 67.307625,18.2466667 67.2285326,34.73 C67.0703478,51.06 53.2291793,64.3233333 36.3825,64.3233333 L36.3825,64.3233333 Z" id="Shape" sketch:type="MSShapeGroup"></path>
                <path d="M53.150087,33.58 L38.3598098,33.58 L38.3598098,13.7233333 C38.3598098,12.4966667 37.3316087,11.5 36.0661304,11.5 C34.8006522,11.5 33.7724511,12.4966667 33.7724511,13.7233333 L33.7724511,35.8033333 C33.7724511,37.03 34.8006522,38.0266667 36.0661304,38.0266667 L53.150087,38.0266667 C54.4155652,38.0266667 55.4437663,37.03 55.4437663,35.8033333 C55.4437663,34.5766667 54.4155652,33.58 53.150087,33.58 L53.150087,33.58 Z" id="Shape" sketch:type="MSShapeGroup"></path>
            </g>
        </g>
    </g>
</svg>