<?xml version="1.0" encoding="UTF-8" standalone="no"?>
<svg width="41px" height="40px" viewBox="0 0 41 40" version="1.1" xmlns="http://www.w3.org/2000/svg" xmlns:xlink="http://www.w3.org/1999/xlink" xmlns:sketch="http://www.bohemiancoding.com/sketch/ns">
    <!-- Generator: Sketch 3.2.2 (9983) - http://www.bohemiancoding.com/sketch -->
    <title>calendar_1_</title>
    <desc>Created with Sketch.</desc>
    <defs></defs>
    <g id="Page-1" stroke="none" stroke-width="1" fill="none" fill-rule="evenodd" sketch:type="MSPage">
        <g id="Artboard-19" sketch:type="MSArtboardGroup" transform="translate(-145.000000, -543.000000)" fill="#EA6C39">
            <g id="calendar_1_" sketch:type="MSLayerGroup" transform="translate(145.500000, 543.000000)">
                <path d="M36.6675,3.75 L31.25,3.75 L31.25,1.25 C31.25,0.55875 30.69125,0 30,0 C29.30875,0 28.75,0.55875 28.75,1.25 L28.75,3.75 L21.25,3.75 L21.25,1.25 C21.25,0.55875 20.69,0 20,0 C19.31,0 18.75,0.55875 18.75,1.25 L18.75,3.75 L11.25,3.75 L11.25,1.25 C11.25,0.55875 10.69,0 10,0 C9.31,0 8.75,0.55875 8.75,1.25 L8.75,3.75 L3.33375,3.75 C1.4925,3.75 1.13686838e-13,5.24125 1.13686838e-13,7.0825 L1.13686838e-13,36.66625 C1.13686838e-13,38.5075 1.4925,40 3.33375,40 L36.6675,40 C38.50875,40 40,38.5075 40,36.66625 L40,7.0825 C40,5.24125 38.50875,3.75 36.6675,3.75 L36.6675,3.75 Z M37.5,36.66625 C37.5,37.12625 37.12625,37.5 36.6675,37.5 L3.33375,37.5 C2.87375,37.5 2.5,37.12625 2.5,36.66625 L2.5,7.0825 C2.5,6.62375 2.87375,6.25 3.33375,6.25 L8.75,6.25 L8.75,8.75 C8.75,9.44125 9.31,10 10,10 C10.69,10 11.25,9.44125 11.25,8.75 L11.25,6.25 L18.75,6.25 L18.75,8.75 C18.75,9.44125 19.31,10 20,10 C20.69,10 21.25,9.44125 21.25,8.75 L21.25,6.25 L28.75,6.25 L28.75,8.75 C28.75,9.44125 29.30875,10 30,10 C30.69125,10 31.25,9.44125 31.25,8.75 L31.25,6.25 L36.6675,6.25 C37.12625,6.25 37.5,6.62375 37.5,7.0825 L37.5,36.66625 L37.5,36.66625 Z" id="Shape" sketch:type="MSShapeGroup"></path>
                <rect id="Rectangle-path" sketch:type="MSShapeGroup" x="8.75" y="15" width="5" height="3.75"></rect>
                <rect id="Rectangle-path" sketch:type="MSShapeGroup" x="8.75" y="21.25" width="5" height="3.75"></rect>
                <rect id="Rectangle-path" sketch:type="MSShapeGroup" x="8.75" y="27.5" width="5" height="3.75"></rect>
                <rect id="Rectangle-path" sketch:type="MSShapeGroup" x="17.5" y="27.5" width="5" height="3.75"></rect>
                <rect id="Rectangle-path" sketch:type="MSShapeGroup" x="17.5" y="21.25" width="5" height="3.75"></rect>
                <rect id="Rectangle-path" sketch:type="MSShapeGroup" x="17.5" y="15" width="5" height="3.75"></rect>
                <rect id="Rectangle-path" sketch:type="MSShapeGroup" x="26.25" y="27.5" width="5" height="3.75"></rect>
                <rect id="Rectangle-path" sketch:type="MSShapeGroup" x="26.25" y="21.25" width="5" height="3.75"></rect>
                <rect id="Rectangle-path" sketch:type="MSShapeGroup" x="26.25" y="15" width="5" height="3.75"></rect>
            </g>
        </g>
    </g>
</svg>