<?xml version="1.0" encoding="UTF-8" standalone="no"?>
<svg width="66px" height="58px" viewBox="0 0 66 58" version="1.1" xmlns="http://www.w3.org/2000/svg" xmlns:xlink="http://www.w3.org/1999/xlink" xmlns:sketch="http://www.bohemiancoding.com/sketch/ns">
    <!-- Generator: Sketch 3.2.2 (9983) - http://www.bohemiancoding.com/sketch -->
    <title>Group</title>
    <desc>Created with Sketch.</desc>
    <defs></defs>
    <g id="Page-1" stroke="none" stroke-width="1" fill="none" fill-rule="evenodd" sketch:type="MSPage">
        <g id="Artboard-19" sketch:type="MSArtboardGroup" transform="translate(-753.000000, -278.000000)" fill="#EA6C39">
            <g id="Group" sketch:type="MSLayerGroup" transform="translate(753.500000, 278.000000)">
                <path d="M59.1622778,43.9712535 C62.4946111,41.9416334 64.7255556,38.2741756 64.7255556,34.1045437 C64.7255556,29.9637725 62.5386667,26.3258968 59.2511111,24.2890615 L59.2511111,2.24463137 C59.2511111,1.07866406 58.3057222,0.133480168 57.1386111,0.133480168 L2.22805556,0.133480168 C1.06888889,0.133480168 0.122777778,1.07866406 0.122777778,2.24463137 L0.122777778,38.1118349 C0.122777778,39.2778022 1.06888889,40.2229861 2.22805556,40.2229861 L25.4619444,40.2229861 L19.4039444,46.2743275 C18.0895,47.5882053 18.5322222,48.6589327 20.3941111,48.6589327 L38.9812222,48.6589327 C40.8351667,48.6589327 41.2858333,47.5889268 39.9634444,46.2743275 L33.9054444,40.2229861 L43.4127778,40.2229861 C45.4516111,43.469801 49.0713889,45.6321797 53.1858889,45.6321797 C53.2898889,45.6321797 53.3924444,45.6321797 53.4892222,45.6249645 L56.4142222,55.5948508 C56.7912222,56.8870832 57.9735,57.7211538 59.2518333,57.7211538 C59.5248333,57.7211538 59.8057778,57.6836351 60.0795,57.6028255 C61.646,57.1381702 62.5473333,55.4996109 62.0887222,53.9346462 L59.1622778,43.9712535 L59.1622778,43.9712535 Z M41.6476667,34.1052653 C41.6476667,34.7474131 41.6996667,35.3823458 41.8029444,36.0014052 L4.34055556,36.0757212 L4.34055556,4.43009856 L55.0261111,4.35506106 L55.0261111,22.7168816 C54.4273889,22.6209202 53.8142222,22.5689712 53.1866111,22.5689712 C46.8187778,22.5689712 41.6476667,27.7429511 41.6476667,34.1052653 L41.6476667,34.1052653 Z M56.5254444,41.1970305 C55.809,41.5368638 55.0333333,41.7655839 54.2208333,41.8759756 C53.8806667,41.9207095 53.534,41.9423549 53.1866111,41.9423549 C51.3398889,41.9423549 49.6332778,41.3002071 48.2964444,40.2229861 C46.9668333,39.1746256 45.9990556,37.6984071 45.5707778,36.0006837 C45.4234444,35.3960546 45.3418333,34.7611219 45.3418333,34.1045437 C45.3418333,29.7790648 48.8583333,26.2587959 53.1873333,26.2587959 C53.8228889,26.2587959 54.4360556,26.3331119 55.0268333,26.4810224 C56.7182778,26.887235 58.188,27.8389125 59.2525556,29.13836 C60.3683889,30.4962501 61.0328333,32.2228341 61.0328333,34.1052653 C61.0328333,36.2820743 60.1387222,38.2525302 58.6986111,39.6775212 C58.0695556,40.2965805 57.3386667,40.8131849 56.5254444,41.1970305 L56.5254444,41.1970305 Z" id="Shape" sketch:type="MSShapeGroup"></path>
                <path d="M57.6853333,37.6291417 C57.5517222,37.6291417 57.4173889,37.593066 57.2960556,37.5180285 C56.9493889,37.3030172 56.8432222,36.8477416 57.0584444,36.5021362 C57.5055,35.7827863 57.7416667,34.9537662 57.7416667,34.1023792 C57.7416667,32.390947 56.7948333,30.8404125 55.2716667,30.0554048 C54.9091111,29.8685326 54.7668333,29.4233582 54.9538889,29.0611579 C55.1409444,28.6989577 55.5858333,28.5575409 55.9491111,28.7444131 C57.9662778,29.7833939 59.2193333,31.8368239 59.2193333,34.1031007 C59.2193333,35.2301062 58.9058889,36.3289727 58.3129444,37.2820933 C58.1735556,37.5057627 57.9323333,37.6291417 57.6853333,37.6291417 L57.6853333,37.6291417 Z" id="Shape" sketch:type="MSShapeGroup"></path>
                <path d="M14.4444444,30.664363 C13.4470556,30.664363 12.6388889,29.8569883 12.6388889,28.8605769 L12.6388889,21.2846755 C12.6388889,20.2882641 13.4470556,19.4808894 14.4444444,19.4808894 C15.4418333,19.4808894 16.25,20.2882641 16.25,21.2846755 L16.25,28.8605769 C16.25,29.8569883 15.4418333,30.664363 14.4444444,30.664363 L14.4444444,30.664363 Z" id="Shape" sketch:type="MSShapeGroup"></path>
                <path d="M19.2595,30.664363 C18.2621111,30.664363 17.4539444,29.8569883 17.4539444,28.8605769 L17.4539444,18.0378606 C17.4539444,17.0414492 18.2621111,16.2340745 19.2595,16.2340745 C20.2568889,16.2340745 21.0650556,17.0414492 21.0650556,18.0378606 L21.0650556,28.8605769 C21.0650556,29.8569883 20.2568889,30.664363 19.2595,30.664363 L19.2595,30.664363 Z" id="Shape" sketch:type="MSShapeGroup"></path>
                <path d="M38.5789444,30.664363 C37.5815556,30.664363 36.7733889,29.8569883 36.7733889,28.8605769 L36.7733889,25.2530048 C36.7733889,24.2565934 37.5815556,23.4492188 38.5789444,23.4492188 C39.5763333,23.4492188 40.3845,24.2565934 40.3845,25.2530048 L40.3845,28.8605769 C40.3845,29.8569883 39.5763333,30.664363 38.5789444,30.664363 L38.5789444,30.664363 Z" id="Shape" sketch:type="MSShapeGroup"></path>
                <path d="M24.0738333,30.664363 C23.0764444,30.664363 22.2682778,29.8569883 22.2682778,28.8605769 L22.2682778,10.8227163 C22.2682778,9.82630493 23.0764444,9.01893029 24.0738333,9.01893029 C25.0712222,9.01893029 25.8793889,9.82630493 25.8793889,10.8227163 L25.8793889,28.8605769 C25.8793889,29.8569883 25.0712222,30.664363 24.0738333,30.664363 L24.0738333,30.664363 Z" id="Shape" sketch:type="MSShapeGroup"></path>
                <path d="M28.8888889,30.664363 C27.8915,30.664363 27.0833333,29.8569883 27.0833333,28.8605769 L27.0833333,18.0378606 C27.0833333,17.0414492 27.8915,16.2340745 28.8888889,16.2340745 C29.8862778,16.2340745 30.6944444,17.0414492 30.6944444,18.0378606 L30.6944444,28.8605769 C30.6944444,29.8569883 29.8862778,30.664363 28.8888889,30.664363 L28.8888889,30.664363 Z" id="Shape" sketch:type="MSShapeGroup"></path>
                <path d="M33.7039444,30.664363 C32.7065556,30.664363 31.8983889,29.8569883 31.8983889,28.8605769 L31.8983889,14.4302885 C31.8983889,13.433877 32.7065556,12.6265024 33.7039444,12.6265024 C34.7013333,12.6265024 35.5095,13.433877 35.5095,14.4302885 L35.5095,28.8605769 C35.5095,29.8569883 34.7013333,30.664363 33.7039444,30.664363 L33.7039444,30.664363 Z" id="Shape" sketch:type="MSShapeGroup"></path>
            </g>
        </g>
    </g>
</svg>